<svg width="146" height="38" viewBox="0 0 146 38" fill="none" xmlns="http://www.w3.org/2000/svg">
<g clip-path="url(#clip0_33_1517)">
<rect y="0.0372314" width="37.9255" height="37.9255" rx="6.59574" fill="url(#paint0_linear_33_1517)"/>
<g filter="url(#filter0_i_33_1517)">
<g clip-path="url(#clip1_33_1517)">
<rect x="0.824707" y="0.861694" width="36.2766" height="36.2766" rx="5.77128" fill="url(#paint1_linear_33_1517)"/>
<rect x="0.824707" y="10.7553" width="15.6649" height="9.89362" fill="#D9D9D9" style="mix-blend-mode:color-burn"/>
<g filter="url(#filter1_f_33_1517)">
<rect x="23.9097" y="28.8936" width="15.6649" height="9.89362" fill="#05721C" fill-opacity="0.4" style="mix-blend-mode:color-burn"/>
</g>
<g filter="url(#filter2_f_33_1517)">
<rect x="21.4365" y="0.0372314" width="18.9628" height="11.5426" fill="#05721C" fill-opacity="0.5" style="mix-blend-mode:color-burn"/>
</g>
<path d="M9.08247 19.8585C9.08247 18.0636 9.34011 16.5478 9.85541 15.3111C10.3793 14.0744 11.1222 13.061 12.084 12.2709C13.003 11.5151 14.0808 10.9311 15.3175 10.5189C16.5542 10.1066 17.9756 9.90051 19.5816 9.90051C20.6894 9.90051 21.6728 9.94775 22.5316 10.0422C23.3904 10.1367 24.1548 10.2612 24.8247 10.4158C25.5031 10.5704 26.1043 10.7465 26.6282 10.944C27.1606 11.1415 27.6545 11.3476 28.1096 11.5623V17.4495H24.2321C23.7941 16.8312 23.3045 16.376 22.7635 16.084C22.231 15.792 21.6814 15.646 21.1145 15.646C20.6336 15.646 20.1656 15.7405 19.7104 15.9294C19.2638 16.1184 18.8644 16.3932 18.5123 16.7539C18.1602 17.1146 17.8768 17.5569 17.6621 18.0808C17.4474 18.5961 17.34 19.1887 17.34 19.8585C17.34 21.3443 17.675 22.4307 18.3449 23.1178C19.0233 23.8048 19.9852 24.1484 21.2305 24.1484C21.5397 24.1484 21.8488 24.1312 22.158 24.0968C22.4758 24.0625 22.7935 24.0109 23.1113 23.9422V22.3835H20.6379V18.8537H28.6507V28.2578C27.9722 28.5412 27.2508 28.8117 26.4865 29.0694C25.7307 29.3185 24.9707 29.5375 24.2063 29.7264C23.4505 29.9067 22.7077 30.0313 21.9777 30.1C21.2477 30.1773 20.5735 30.2159 19.9551 30.2159C18.9417 30.2159 17.9713 30.1429 17.0437 29.9969C16.1162 29.8509 15.2488 29.589 14.4415 29.2111C13.6428 28.8332 12.9128 28.3609 12.2515 27.794C11.5902 27.2186 11.0234 26.5445 10.5511 25.7715C10.0873 24.99 9.72658 24.1097 9.46894 23.1306C9.21129 22.143 9.08247 21.0523 9.08247 19.8585Z" fill="white"/>
</g>
<rect x="0.61859" y="0.655577" width="36.6888" height="36.6888" rx="5.97739" stroke="url(#paint2_linear_33_1517)" stroke-width="0.412234"/>
</g>
</g>
<path d="M52.7933 25.204C51.592 25.204 50.521 24.9433 49.5803 24.422C48.651 23.8893 47.92 23.164 47.3873 22.246C46.8546 21.3167 46.5883 20.257 46.5883 19.067C46.5883 17.8543 46.8546 16.789 47.3873 15.871C47.92 14.9417 48.651 14.2163 49.5803 13.695C50.521 13.1623 51.592 12.896 52.7933 12.896C53.4846 12.896 54.1306 13.0037 54.7313 13.219C55.3433 13.4343 55.893 13.729 56.3803 14.103C56.8676 14.4657 57.2643 14.8907 57.5703 15.378L55.9723 16.398C55.757 16.0693 55.4793 15.7747 55.1393 15.514C54.7993 15.2533 54.4253 15.055 54.0173 14.919C53.6206 14.7717 53.2126 14.698 52.7933 14.698C51.9773 14.698 51.252 14.885 50.6173 15.259C49.994 15.633 49.501 16.1487 49.1383 16.806C48.7756 17.452 48.5943 18.2057 48.5943 19.067C48.5943 19.9057 48.77 20.6537 49.1213 21.311C49.484 21.9683 49.9826 22.484 50.6173 22.858C51.2633 23.232 52.0056 23.419 52.8443 23.419C53.5016 23.419 54.091 23.283 54.6123 23.011C55.1336 22.739 55.5416 22.3593 55.8363 21.872C56.1423 21.3847 56.2953 20.8237 56.2953 20.189L58.1823 19.951C58.1823 21.0277 57.95 21.9627 57.4853 22.756C57.032 23.538 56.3973 24.1443 55.5813 24.575C54.7766 24.9943 53.8473 25.204 52.7933 25.204ZM53.4393 20.342V18.744H58.1823V20.07L57.1283 20.342H53.4393ZM60.9873 20.478C60.9873 19.56 61.163 18.8063 61.5143 18.217C61.8656 17.6277 62.319 17.1913 62.8743 16.908C63.441 16.6133 64.0303 16.466 64.6423 16.466V18.285C64.121 18.285 63.628 18.3587 63.1633 18.506C62.71 18.642 62.3416 18.8687 62.0583 19.186C61.775 19.5033 61.6333 19.9227 61.6333 20.444L60.9873 20.478ZM59.7293 25V16.5H61.6333V25H59.7293ZM71.0901 25L71.0051 23.402V20.631C71.0051 20.053 70.9427 19.5713 70.8181 19.186C70.7047 18.7893 70.5121 18.489 70.2401 18.285C69.9794 18.0697 69.6281 17.962 69.1861 17.962C68.7781 17.962 68.4211 18.047 68.1151 18.217C67.8091 18.387 67.5484 18.6533 67.3331 19.016L65.6671 18.404C65.8484 18.03 66.0864 17.6843 66.3811 17.367C66.6871 17.0383 67.0667 16.7777 67.5201 16.585C67.9847 16.3923 68.5401 16.296 69.1861 16.296C70.0134 16.296 70.7047 16.4603 71.2601 16.789C71.8154 17.1063 72.2234 17.5653 72.4841 18.166C72.7561 18.7667 72.8921 19.492 72.8921 20.342L72.8411 25H71.0901ZM68.6421 25.204C67.6221 25.204 66.8287 24.9773 66.2621 24.524C65.7067 24.0707 65.4291 23.4303 65.4291 22.603C65.4291 21.719 65.7237 21.0447 66.3131 20.58C66.9137 20.1153 67.7467 19.883 68.8121 19.883H71.0901V21.345H69.4241C68.6647 21.345 68.1321 21.4527 67.8261 21.668C67.5201 21.872 67.3671 22.1667 67.3671 22.552C67.3671 22.8807 67.4974 23.1413 67.7581 23.334C68.0301 23.5153 68.4041 23.606 68.8801 23.606C69.3107 23.606 69.6847 23.5097 70.0021 23.317C70.3194 23.1243 70.5631 22.8693 70.7331 22.552C70.9144 22.2347 71.0051 21.8777 71.0051 21.481H71.5661C71.5661 22.637 71.3337 23.5493 70.8691 24.218C70.4044 24.8753 69.6621 25.204 68.6421 25.204ZM80.9571 25L80.8721 23.419V13.1H82.7591V25H80.9571ZM78.1861 25.204C77.4154 25.204 76.7411 25.0227 76.1631 24.66C75.5964 24.286 75.1488 23.7647 74.8201 23.096C74.5028 22.4273 74.3441 21.6453 74.3441 20.75C74.3441 19.8433 74.5028 19.0613 74.8201 18.404C75.1488 17.7353 75.5964 17.2197 76.1631 16.857C76.7411 16.483 77.4154 16.296 78.1861 16.296C78.9001 16.296 79.5121 16.483 80.0221 16.857C80.5434 17.2197 80.9401 17.7353 81.2121 18.404C81.4841 19.0613 81.6201 19.8433 81.6201 20.75C81.6201 21.6453 81.4841 22.4273 81.2121 23.096C80.9401 23.7647 80.5434 24.286 80.0221 24.66C79.5121 25.0227 78.9001 25.204 78.1861 25.204ZM78.6621 23.47C79.0928 23.47 79.4724 23.3567 79.8011 23.13C80.1411 22.892 80.4018 22.569 80.5831 22.161C80.7758 21.753 80.8721 21.2827 80.8721 20.75C80.8721 20.2173 80.7758 19.747 80.5831 19.339C80.4018 18.931 80.1411 18.6137 79.8011 18.387C79.4724 18.1603 79.0871 18.047 78.6451 18.047C78.1918 18.047 77.7894 18.1603 77.4381 18.387C77.0868 18.6137 76.8091 18.931 76.6051 19.339C76.4124 19.747 76.3104 20.2173 76.2991 20.75C76.3104 21.2827 76.4124 21.753 76.6051 22.161C76.8091 22.569 77.0868 22.892 77.4381 23.13C77.8008 23.3567 78.2088 23.47 78.6621 23.47ZM88.6551 25.204C87.8277 25.204 87.0911 25.017 86.4451 24.643C85.8104 24.2577 85.3061 23.7307 84.9321 23.062C84.5694 22.3933 84.3881 21.6227 84.3881 20.75C84.3881 19.8773 84.5751 19.1067 84.9491 18.438C85.3231 17.7693 85.8331 17.248 86.4791 16.874C87.1364 16.4887 87.8844 16.296 88.7231 16.296C89.4824 16.296 90.1681 16.4943 90.7801 16.891C91.3921 17.2763 91.8737 17.8373 92.2251 18.574C92.5877 19.3107 92.7691 20.189 92.7691 21.209H86.0881L86.3431 20.971C86.3431 21.4923 86.4564 21.9457 86.6831 22.331C86.9097 22.705 87.2101 22.994 87.5841 23.198C87.9581 23.402 88.3717 23.504 88.8251 23.504C89.3464 23.504 89.7771 23.3907 90.1171 23.164C90.4571 22.926 90.7234 22.62 90.9161 22.246L92.5991 22.96C92.3611 23.4133 92.0551 23.81 91.6811 24.15C91.3184 24.49 90.8821 24.7507 90.3721 24.932C89.8734 25.1133 89.3011 25.204 88.6551 25.204ZM86.4621 19.985L86.1901 19.747H90.9841L90.7291 19.985C90.7291 19.5203 90.6271 19.1407 90.4231 18.846C90.2191 18.54 89.9584 18.3133 89.6411 18.166C89.3351 18.0073 89.0121 17.928 88.6721 17.928C88.3321 17.928 87.9921 18.0073 87.6521 18.166C87.3121 18.3133 87.0287 18.54 86.8021 18.846C86.5754 19.1407 86.4621 19.5203 86.4621 19.985ZM101.783 25L104.622 16.5H106.543L103.653 25H101.783ZM96.0879 25L98.8589 16.5H100.542L97.8049 25H96.0879ZM95.9179 25L93.0279 16.5H94.9489L97.7199 25H95.9179ZM101.766 25L99.0459 16.5H100.729L103.5 25H101.766ZM107.893 25V16.5H109.78V25H107.893ZM108.845 14.885C108.539 14.885 108.273 14.7773 108.046 14.562C107.831 14.3353 107.723 14.069 107.723 13.763C107.723 13.457 107.831 13.1963 108.046 12.981C108.273 12.7657 108.539 12.658 108.845 12.658C109.151 12.658 109.412 12.7657 109.627 12.981C109.854 13.1963 109.967 13.457 109.967 13.763C109.967 14.069 109.854 14.3353 109.627 14.562C109.412 14.7773 109.151 14.885 108.845 14.885ZM115.118 25.204C114.552 25.204 114.03 25.119 113.554 24.949C113.078 24.779 112.67 24.541 112.33 24.235C111.99 23.9177 111.73 23.5493 111.548 23.13L113.197 22.399C113.367 22.7163 113.617 22.9827 113.945 23.198C114.285 23.4133 114.659 23.521 115.067 23.521C115.509 23.521 115.861 23.4473 116.121 23.3C116.393 23.1413 116.529 22.926 116.529 22.654C116.529 22.3933 116.427 22.195 116.223 22.059C116.019 21.9117 115.73 21.7927 115.356 21.702L114.557 21.481C113.753 21.277 113.124 20.954 112.67 20.512C112.217 20.0587 111.99 19.543 111.99 18.965C111.99 18.115 112.262 17.4577 112.806 16.993C113.362 16.5283 114.155 16.296 115.186 16.296C115.708 16.296 116.184 16.3753 116.614 16.534C117.056 16.6813 117.436 16.8967 117.753 17.18C118.071 17.452 118.292 17.775 118.416 18.149L116.835 18.863C116.722 18.5797 116.507 18.3643 116.189 18.217C115.872 18.0583 115.521 17.979 115.135 17.979C114.75 17.979 114.45 18.064 114.234 18.234C114.019 18.3927 113.911 18.6193 113.911 18.914C113.911 19.084 114.008 19.2427 114.2 19.39C114.393 19.526 114.671 19.6393 115.033 19.73L116.036 19.968C116.592 20.104 117.045 20.3193 117.396 20.614C117.748 20.8973 118.008 21.2203 118.178 21.583C118.348 21.9343 118.433 22.2913 118.433 22.654C118.433 23.164 118.286 23.6117 117.991 23.997C117.708 24.3823 117.317 24.6827 116.818 24.898C116.32 25.102 115.753 25.204 115.118 25.204ZM123.734 25.204C122.907 25.204 122.17 25.017 121.524 24.643C120.889 24.2577 120.385 23.7307 120.011 23.062C119.648 22.3933 119.467 21.6227 119.467 20.75C119.467 19.8773 119.654 19.1067 120.028 18.438C120.402 17.7693 120.912 17.248 121.558 16.874C122.215 16.4887 122.963 16.296 123.802 16.296C124.561 16.296 125.247 16.4943 125.859 16.891C126.471 17.2763 126.953 17.8373 127.304 18.574C127.667 19.3107 127.848 20.189 127.848 21.209H121.167L121.422 20.971C121.422 21.4923 121.535 21.9457 121.762 22.331C121.989 22.705 122.289 22.994 122.663 23.198C123.037 23.402 123.451 23.504 123.904 23.504C124.425 23.504 124.856 23.3907 125.196 23.164C125.536 22.926 125.802 22.62 125.995 22.246L127.678 22.96C127.44 23.4133 127.134 23.81 126.76 24.15C126.397 24.49 125.961 24.7507 125.451 24.932C124.952 25.1133 124.38 25.204 123.734 25.204ZM121.541 19.985L121.269 19.747H126.063L125.808 19.985C125.808 19.5203 125.706 19.1407 125.502 18.846C125.298 18.54 125.037 18.3133 124.72 18.166C124.414 18.0073 124.091 17.928 123.751 17.928C123.411 17.928 123.071 18.0073 122.731 18.166C122.391 18.3133 122.108 18.54 121.881 18.846C121.654 19.1407 121.541 19.5203 121.541 19.985ZM130.224 25.238C129.896 25.238 129.612 25.1247 129.374 24.898C129.148 24.66 129.034 24.3767 129.034 24.048C129.034 23.7193 129.148 23.436 129.374 23.198C129.612 22.96 129.896 22.841 130.224 22.841C130.553 22.841 130.836 22.96 131.074 23.198C131.312 23.436 131.431 23.7193 131.431 24.048C131.431 24.3767 131.312 24.66 131.074 24.898C130.836 25.1247 130.553 25.238 130.224 25.238ZM138.443 25L138.358 23.402V20.631C138.358 20.053 138.295 19.5713 138.171 19.186C138.057 18.7893 137.865 18.489 137.593 18.285C137.332 18.0697 136.981 17.962 136.539 17.962C136.131 17.962 135.774 18.047 135.468 18.217C135.162 18.387 134.901 18.6533 134.686 19.016L133.02 18.404C133.201 18.03 133.439 17.6843 133.734 17.367C134.04 17.0383 134.419 16.7777 134.873 16.585C135.337 16.3923 135.893 16.296 136.539 16.296C137.366 16.296 138.057 16.4603 138.613 16.789C139.168 17.1063 139.576 17.5653 139.837 18.166C140.109 18.7667 140.245 19.492 140.245 20.342L140.194 25H138.443ZM135.995 25.204C134.975 25.204 134.181 24.9773 133.615 24.524C133.059 24.0707 132.782 23.4303 132.782 22.603C132.782 21.719 133.076 21.0447 133.666 20.58C134.266 20.1153 135.099 19.883 136.165 19.883H138.443V21.345H136.777C136.017 21.345 135.485 21.4527 135.179 21.668C134.873 21.872 134.72 22.1667 134.72 22.552C134.72 22.8807 134.85 23.1413 135.111 23.334C135.383 23.5153 135.757 23.606 136.233 23.606C136.663 23.606 137.037 23.5097 137.355 23.317C137.672 23.1243 137.916 22.8693 138.086 22.552C138.267 22.2347 138.358 21.8777 138.358 21.481H138.919C138.919 22.637 138.686 23.5493 138.222 24.218C137.757 24.8753 137.015 25.204 135.995 25.204ZM142.292 25V16.5H144.179V25H142.292ZM143.244 14.885C142.938 14.885 142.671 14.7773 142.445 14.562C142.229 14.3353 142.122 14.069 142.122 13.763C142.122 13.457 142.229 13.1963 142.445 12.981C142.671 12.7657 142.938 12.658 143.244 12.658C143.55 12.658 143.81 12.7657 144.026 12.981C144.252 13.1963 144.366 13.457 144.366 13.763C144.366 14.069 144.252 14.3353 144.026 14.562C143.81 14.7773 143.55 14.885 143.244 14.885Z" fill="black"/>
<defs>
<filter id="filter0_i_33_1517" x="0.412598" y="0.0372289" width="37.1011" height="37.5133" filterUnits="userSpaceOnUse" color-interpolation-filters="sRGB">
<feFlood flood-opacity="0" result="BackgroundImageFix"/>
<feBlend mode="normal" in="SourceGraphic" in2="BackgroundImageFix" result="shape"/>
<feColorMatrix in="SourceAlpha" type="matrix" values="0 0 0 0 0 0 0 0 0 0 0 0 0 0 0 0 0 0 127 0" result="hardAlpha"/>
<feOffset dy="-0.824468"/>
<feGaussianBlur stdDeviation="0.206117"/>
<feComposite in2="hardAlpha" operator="arithmetic" k2="-1" k3="1"/>
<feColorMatrix type="matrix" values="0 0 0 0 1 0 0 0 0 1 0 0 0 0 1 0 0 0 0.28 0"/>
<feBlend mode="normal" in2="shape" result="effect1_innerShadow_33_1517"/>
</filter>
<filter id="filter1_f_33_1517" x="22.2607" y="27.2447" width="18.9629" height="13.1915" filterUnits="userSpaceOnUse" color-interpolation-filters="sRGB">
<feFlood flood-opacity="0" result="BackgroundImageFix"/>
<feBlend mode="normal" in="SourceGraphic" in2="BackgroundImageFix" result="shape"/>
<feGaussianBlur stdDeviation="0.824468" result="effect1_foregroundBlur_33_1517"/>
</filter>
<filter id="filter2_f_33_1517" x="19.7876" y="-1.6117" width="22.2608" height="14.8404" filterUnits="userSpaceOnUse" color-interpolation-filters="sRGB">
<feFlood flood-opacity="0" result="BackgroundImageFix"/>
<feBlend mode="normal" in="SourceGraphic" in2="BackgroundImageFix" result="shape"/>
<feGaussianBlur stdDeviation="0.824468" result="effect1_foregroundBlur_33_1517"/>
</filter>
<linearGradient id="paint0_linear_33_1517" x1="18.9628" y1="0.0372314" x2="18.9628" y2="37.9628" gradientUnits="userSpaceOnUse">
<stop stop-color="#0EBB5B"/>
<stop offset="1" stop-color="#0A9925"/>
</linearGradient>
<linearGradient id="paint1_linear_33_1517" x1="18.963" y1="0.861694" x2="18.963" y2="37.1383" gradientUnits="userSpaceOnUse">
<stop stop-color="#0EBE5F"/>
<stop offset="1" stop-color="#099620"/>
</linearGradient>
<linearGradient id="paint2_linear_33_1517" x1="18.963" y1="0.861694" x2="18.963" y2="37.1383" gradientUnits="userSpaceOnUse">
<stop stop-color="white"/>
<stop offset="1" stop-color="white" stop-opacity="0.18"/>
</linearGradient>
<clipPath id="clip0_33_1517">
<rect y="0.0372314" width="37.9255" height="37.9255" rx="6.59574" fill="white"/>
</clipPath>
<clipPath id="clip1_33_1517">
<rect x="0.824707" y="0.861694" width="36.2766" height="36.2766" rx="5.77128" fill="white"/>
</clipPath>
</defs>
</svg>
