<svg width="38" height="38" viewBox="0 0 38 38" fill="none" xmlns="http://www.w3.org/2000/svg">
<g clip-path="url(#clip0_167_1483)">
<rect y="0.0373535" width="37.9255" height="37.9255" rx="6.59574" fill="url(#paint0_linear_167_1483)"/>
<g filter="url(#filter0_i_167_1483)">
<g clip-path="url(#clip1_167_1483)">
<rect x="0.824463" y="0.861816" width="36.2766" height="36.2766" rx="5.77128" fill="url(#paint1_linear_167_1483)"/>
<rect x="0.824463" y="10.7554" width="15.6649" height="9.89362" fill="#D9D9D9" style="mix-blend-mode:color-burn"/>
<g filter="url(#filter1_f_167_1483)">
<rect x="23.9097" y="28.8938" width="15.6649" height="9.89362" fill="#05721C" fill-opacity="0.4" style="mix-blend-mode:color-burn"/>
</g>
<g filter="url(#filter2_f_167_1483)">
<rect x="21.4363" y="0.0373535" width="18.9628" height="11.5426" fill="#05721C" fill-opacity="0.5" style="mix-blend-mode:color-burn"/>
</g>
<path d="M9.08198 19.8586C9.08198 18.0637 9.33963 16.5479 9.85492 15.3112C10.3788 14.0745 11.1217 13.0611 12.0836 12.2709C13.0025 11.5152 14.0803 10.9312 15.317 10.519C16.5537 10.1067 17.9751 9.9006 19.5811 9.9006C20.6889 9.9006 21.6723 9.94784 22.5311 10.0423C23.3899 10.1368 24.1543 10.2613 24.8242 10.4159C25.5026 10.5705 26.1038 10.7465 26.6277 10.9441C27.1602 11.1416 27.654 11.3477 28.1092 11.5624V17.4496H24.2316C23.7936 16.8313 23.3041 16.3761 22.763 16.0841C22.2305 15.7921 21.6809 15.6461 21.1141 15.6461C20.6331 15.6461 20.1651 15.7406 19.7099 15.9295C19.2633 16.1185 18.8639 16.3933 18.5118 16.754C18.1597 17.1147 17.8763 17.557 17.6616 18.0809C17.4469 18.5962 17.3395 19.1888 17.3395 19.8586C17.3395 21.3444 17.6745 22.4308 18.3444 23.1179C19.0228 23.8049 19.9847 24.1484 21.23 24.1484C21.5392 24.1484 21.8484 24.1313 22.1575 24.0969C22.4753 24.0626 22.7931 24.011 23.1108 23.9423V22.3836H20.6374V18.8538H28.6502V28.2579C27.9717 28.5413 27.2503 28.8118 26.486 29.0695C25.7302 29.3185 24.9702 29.5375 24.2058 29.7265C23.4501 29.9068 22.7072 30.0314 21.9772 30.1001C21.2472 30.1774 20.573 30.216 19.9547 30.216C18.9412 30.216 17.9708 30.143 17.0432 29.997C16.1157 29.851 15.2483 29.5891 14.441 29.2112C13.6423 28.8333 12.9123 28.361 12.251 27.7941C11.5897 27.2187 11.0229 26.5446 10.5506 25.7716C10.0868 24.9901 9.72609 24.1098 9.46845 23.1307C9.2108 22.1431 9.08198 21.0524 9.08198 19.8586Z" fill="white"/>
</g>
<rect x="0.618346" y="0.655699" width="36.6888" height="36.6888" rx="5.97739" stroke="url(#paint2_linear_167_1483)" stroke-width="0.412234"/>
</g>
</g>
<defs>
<filter id="filter0_i_167_1483" x="0.412109" y="0.0372289" width="37.1011" height="37.5133" filterUnits="userSpaceOnUse" color-interpolation-filters="sRGB">
<feFlood flood-opacity="0" result="BackgroundImageFix"/>
<feBlend mode="normal" in="SourceGraphic" in2="BackgroundImageFix" result="shape"/>
<feColorMatrix in="SourceAlpha" type="matrix" values="0 0 0 0 0 0 0 0 0 0 0 0 0 0 0 0 0 0 127 0" result="hardAlpha"/>
<feOffset dy="-0.824468"/>
<feGaussianBlur stdDeviation="0.206117"/>
<feComposite in2="hardAlpha" operator="arithmetic" k2="-1" k3="1"/>
<feColorMatrix type="matrix" values="0 0 0 0 1 0 0 0 0 1 0 0 0 0 1 0 0 0 0.28 0"/>
<feBlend mode="normal" in2="shape" result="effect1_innerShadow_167_1483"/>
</filter>
<filter id="filter1_f_167_1483" x="22.2607" y="27.2449" width="18.9627" height="13.1914" filterUnits="userSpaceOnUse" color-interpolation-filters="sRGB">
<feFlood flood-opacity="0" result="BackgroundImageFix"/>
<feBlend mode="normal" in="SourceGraphic" in2="BackgroundImageFix" result="shape"/>
<feGaussianBlur stdDeviation="0.824468" result="effect1_foregroundBlur_167_1483"/>
</filter>
<filter id="filter2_f_167_1483" x="19.7873" y="-1.61158" width="22.2605" height="14.8404" filterUnits="userSpaceOnUse" color-interpolation-filters="sRGB">
<feFlood flood-opacity="0" result="BackgroundImageFix"/>
<feBlend mode="normal" in="SourceGraphic" in2="BackgroundImageFix" result="shape"/>
<feGaussianBlur stdDeviation="0.824468" result="effect1_foregroundBlur_167_1483"/>
</filter>
<linearGradient id="paint0_linear_167_1483" x1="18.9628" y1="0.0373535" x2="18.9628" y2="37.9629" gradientUnits="userSpaceOnUse">
<stop stop-color="#0EBB5B"/>
<stop offset="1" stop-color="#0A9925"/>
</linearGradient>
<linearGradient id="paint1_linear_167_1483" x1="18.9628" y1="0.861816" x2="18.9628" y2="37.1384" gradientUnits="userSpaceOnUse">
<stop stop-color="#0EBE5F"/>
<stop offset="1" stop-color="#099620"/>
</linearGradient>
<linearGradient id="paint2_linear_167_1483" x1="18.9628" y1="0.861816" x2="18.9628" y2="37.1384" gradientUnits="userSpaceOnUse">
<stop stop-color="white"/>
<stop offset="1" stop-color="white" stop-opacity="0.18"/>
</linearGradient>
<clipPath id="clip0_167_1483">
<rect y="0.0373535" width="37.9255" height="37.9255" rx="6.59574" fill="white"/>
</clipPath>
<clipPath id="clip1_167_1483">
<rect x="0.824463" y="0.861816" width="36.2766" height="36.2766" rx="5.77128" fill="white"/>
</clipPath>
</defs>
</svg>
