<svg width="146" height="38" viewBox="0 0 146 38" fill="none" xmlns="http://www.w3.org/2000/svg">
<g clip-path="url(#clip0_15_121)">
<rect y="0.0372314" width="37.9255" height="37.9255" rx="6.59574" fill="url(#paint0_linear_15_121)"/>
<g filter="url(#filter0_i_15_121)">
<g clip-path="url(#clip1_15_121)">
<rect x="0.824463" y="0.861694" width="36.2766" height="36.2766" rx="5.77128" fill="url(#paint1_linear_15_121)"/>
<rect x="0.824463" y="10.7553" width="15.6649" height="9.89362" fill="#D9D9D9" style="mix-blend-mode:color-burn"/>
<g filter="url(#filter1_f_15_121)">
<rect x="23.9097" y="28.8936" width="15.6649" height="9.89362" fill="#05721C" fill-opacity="0.4" style="mix-blend-mode:color-burn"/>
</g>
<g filter="url(#filter2_f_15_121)">
<rect x="21.4363" y="0.0372314" width="18.9628" height="11.5426" fill="#05721C" fill-opacity="0.5" style="mix-blend-mode:color-burn"/>
</g>
<path d="M9.08198 19.8585C9.08198 18.0636 9.33963 16.5478 9.85492 15.3111C10.3788 14.0744 11.1217 13.061 12.0836 12.2709C13.0025 11.5151 14.0803 10.9311 15.317 10.5189C16.5537 10.1066 17.9751 9.90051 19.5811 9.90051C20.6889 9.90051 21.6723 9.94775 22.5311 10.0422C23.3899 10.1367 24.1543 10.2612 24.8242 10.4158C25.5026 10.5704 26.1038 10.7465 26.6277 10.944C27.1602 11.1415 27.654 11.3476 28.1092 11.5623V17.4495H24.2316C23.7936 16.8312 23.3041 16.376 22.763 16.084C22.2305 15.792 21.6809 15.646 21.1141 15.646C20.6331 15.646 20.1651 15.7405 19.7099 15.9294C19.2633 16.1184 18.8639 16.3932 18.5118 16.7539C18.1597 17.1146 17.8763 17.5569 17.6616 18.0808C17.4469 18.5961 17.3395 19.1887 17.3395 19.8585C17.3395 21.3443 17.6745 22.4307 18.3444 23.1178C19.0228 23.8048 19.9847 24.1484 21.23 24.1484C21.5392 24.1484 21.8484 24.1312 22.1575 24.0968C22.4753 24.0625 22.7931 24.0109 23.1108 23.9422V22.3835H20.6374V18.8537H28.6502V28.2578C27.9717 28.5412 27.2503 28.8117 26.486 29.0694C25.7302 29.3185 24.9702 29.5375 24.2058 29.7264C23.4501 29.9067 22.7072 30.0313 21.9772 30.1C21.2472 30.1773 20.573 30.2159 19.9547 30.2159C18.9412 30.2159 17.9708 30.1429 17.0432 29.9969C16.1157 29.8509 15.2483 29.589 14.441 29.2111C13.6423 28.8332 12.9123 28.3609 12.251 27.794C11.5897 27.2186 11.0229 26.5445 10.5506 25.7715C10.0868 24.99 9.72609 24.1097 9.46845 23.1306C9.2108 22.143 9.08198 21.0523 9.08198 19.8585Z" fill="white"/>
</g>
<rect x="0.618346" y="0.655577" width="36.6888" height="36.6888" rx="5.97739" stroke="url(#paint2_linear_15_121)" stroke-width="0.412234"/>
</g>
</g>
<path d="M52.7935 25.204C51.5922 25.204 50.5212 24.9433 49.5805 24.422C48.6512 23.8893 47.9202 23.164 47.3875 22.246C46.8549 21.3167 46.5885 20.257 46.5885 19.067C46.5885 17.8543 46.8549 16.789 47.3875 15.871C47.9202 14.9417 48.6512 14.2163 49.5805 13.695C50.5212 13.1623 51.5922 12.896 52.7935 12.896C53.4849 12.896 54.1309 13.0037 54.7315 13.219C55.3435 13.4343 55.8932 13.729 56.3805 14.103C56.8679 14.4657 57.2645 14.8907 57.5705 15.378L55.9725 16.398C55.7572 16.0693 55.4795 15.7747 55.1395 15.514C54.7995 15.2533 54.4255 15.055 54.0175 14.919C53.6209 14.7717 53.2129 14.698 52.7935 14.698C51.9775 14.698 51.2522 14.885 50.6175 15.259C49.9942 15.633 49.5012 16.1487 49.1385 16.806C48.7759 17.452 48.5945 18.2057 48.5945 19.067C48.5945 19.9057 48.7702 20.6537 49.1215 21.311C49.4842 21.9683 49.9829 22.484 50.6175 22.858C51.2635 23.232 52.0059 23.419 52.8445 23.419C53.5019 23.419 54.0912 23.283 54.6125 23.011C55.1339 22.739 55.5419 22.3593 55.8365 21.872C56.1425 21.3847 56.2955 20.8237 56.2955 20.189L58.1825 19.951C58.1825 21.0277 57.9502 21.9627 57.4855 22.756C57.0322 23.538 56.3975 24.1443 55.5815 24.575C54.7769 24.9943 53.8475 25.204 52.7935 25.204ZM53.4395 20.342V18.744H58.1825V20.07L57.1285 20.342H53.4395ZM60.9875 20.478C60.9875 19.56 61.1632 18.8063 61.5145 18.217C61.8659 17.6277 62.3192 17.1913 62.8745 16.908C63.4412 16.6133 64.0305 16.466 64.6425 16.466V18.285C64.1212 18.285 63.6282 18.3587 63.1635 18.506C62.7102 18.642 62.3419 18.8687 62.0585 19.186C61.7752 19.5033 61.6335 19.9227 61.6335 20.444L60.9875 20.478ZM59.7295 25V16.5H61.6335V25H59.7295ZM71.0903 25L71.0053 23.402V20.631C71.0053 20.053 70.943 19.5713 70.8183 19.186C70.705 18.7893 70.5123 18.489 70.2403 18.285C69.9797 18.0697 69.6283 17.962 69.1863 17.962C68.7783 17.962 68.4213 18.047 68.1153 18.217C67.8093 18.387 67.5487 18.6533 67.3333 19.016L65.6673 18.404C65.8487 18.03 66.0867 17.6843 66.3813 17.367C66.6873 17.0383 67.067 16.7777 67.5203 16.585C67.985 16.3923 68.5403 16.296 69.1863 16.296C70.0137 16.296 70.705 16.4603 71.2603 16.789C71.8157 17.1063 72.2237 17.5653 72.4843 18.166C72.7563 18.7667 72.8923 19.492 72.8923 20.342L72.8413 25H71.0903ZM68.6423 25.204C67.6223 25.204 66.829 24.9773 66.2623 24.524C65.707 24.0707 65.4293 23.4303 65.4293 22.603C65.4293 21.719 65.724 21.0447 66.3133 20.58C66.914 20.1153 67.747 19.883 68.8123 19.883H71.0903V21.345H69.4243C68.665 21.345 68.1323 21.4527 67.8263 21.668C67.5203 21.872 67.3673 22.1667 67.3673 22.552C67.3673 22.8807 67.4977 23.1413 67.7583 23.334C68.0303 23.5153 68.4043 23.606 68.8803 23.606C69.311 23.606 69.685 23.5097 70.0023 23.317C70.3197 23.1243 70.5633 22.8693 70.7333 22.552C70.9147 22.2347 71.0053 21.8777 71.0053 21.481H71.5663C71.5663 22.637 71.334 23.5493 70.8693 24.218C70.4047 24.8753 69.6623 25.204 68.6423 25.204ZM80.9574 25L80.8724 23.419V13.1H82.7594V25H80.9574ZM78.1864 25.204C77.4157 25.204 76.7414 25.0227 76.1634 24.66C75.5967 24.286 75.149 23.7647 74.8204 23.096C74.503 22.4273 74.3444 21.6453 74.3444 20.75C74.3444 19.8433 74.503 19.0613 74.8204 18.404C75.149 17.7353 75.5967 17.2197 76.1634 16.857C76.7414 16.483 77.4157 16.296 78.1864 16.296C78.9004 16.296 79.5124 16.483 80.0224 16.857C80.5437 17.2197 80.9404 17.7353 81.2124 18.404C81.4844 19.0613 81.6204 19.8433 81.6204 20.75C81.6204 21.6453 81.4844 22.4273 81.2124 23.096C80.9404 23.7647 80.5437 24.286 80.0224 24.66C79.5124 25.0227 78.9004 25.204 78.1864 25.204ZM78.6624 23.47C79.093 23.47 79.4727 23.3567 79.8014 23.13C80.1414 22.892 80.402 22.569 80.5834 22.161C80.776 21.753 80.8724 21.2827 80.8724 20.75C80.8724 20.2173 80.776 19.747 80.5834 19.339C80.402 18.931 80.1414 18.6137 79.8014 18.387C79.4727 18.1603 79.0874 18.047 78.6454 18.047C78.192 18.047 77.7897 18.1603 77.4384 18.387C77.087 18.6137 76.8094 18.931 76.6054 19.339C76.4127 19.747 76.3107 20.2173 76.2994 20.75C76.3107 21.2827 76.4127 21.753 76.6054 22.161C76.8094 22.569 77.087 22.892 77.4384 23.13C77.801 23.3567 78.209 23.47 78.6624 23.47ZM88.6553 25.204C87.828 25.204 87.0913 25.017 86.4453 24.643C85.8106 24.2577 85.3063 23.7307 84.9323 23.062C84.5696 22.3933 84.3883 21.6227 84.3883 20.75C84.3883 19.8773 84.5753 19.1067 84.9493 18.438C85.3233 17.7693 85.8333 17.248 86.4793 16.874C87.1366 16.4887 87.8846 16.296 88.7233 16.296C89.4826 16.296 90.1683 16.4943 90.7803 16.891C91.3923 17.2763 91.874 17.8373 92.2253 18.574C92.588 19.3107 92.7693 20.189 92.7693 21.209H86.0883L86.3433 20.971C86.3433 21.4923 86.4566 21.9457 86.6833 22.331C86.91 22.705 87.2103 22.994 87.5843 23.198C87.9583 23.402 88.372 23.504 88.8253 23.504C89.3466 23.504 89.7773 23.3907 90.1173 23.164C90.4573 22.926 90.7236 22.62 90.9163 22.246L92.5993 22.96C92.3613 23.4133 92.0553 23.81 91.6813 24.15C91.3186 24.49 90.8823 24.7507 90.3723 24.932C89.8736 25.1133 89.3013 25.204 88.6553 25.204ZM86.4623 19.985L86.1903 19.747H90.9843L90.7293 19.985C90.7293 19.5203 90.6273 19.1407 90.4233 18.846C90.2193 18.54 89.9586 18.3133 89.6413 18.166C89.3353 18.0073 89.0123 17.928 88.6723 17.928C88.3323 17.928 87.9923 18.0073 87.6523 18.166C87.3123 18.3133 87.029 18.54 86.8023 18.846C86.5756 19.1407 86.4623 19.5203 86.4623 19.985ZM101.783 25L104.622 16.5H106.543L103.653 25H101.783ZM96.0882 25L98.8592 16.5H100.542L97.8052 25H96.0882ZM95.9182 25L93.0282 16.5H94.9492L97.7202 25H95.9182ZM101.766 25L99.0462 16.5H100.729L103.5 25H101.766ZM107.893 25V16.5H109.78V25H107.893ZM108.845 14.885C108.539 14.885 108.273 14.7773 108.046 14.562C107.831 14.3353 107.723 14.069 107.723 13.763C107.723 13.457 107.831 13.1963 108.046 12.981C108.273 12.7657 108.539 12.658 108.845 12.658C109.151 12.658 109.412 12.7657 109.627 12.981C109.854 13.1963 109.967 13.457 109.967 13.763C109.967 14.069 109.854 14.3353 109.627 14.562C109.412 14.7773 109.151 14.885 108.845 14.885ZM115.118 25.204C114.552 25.204 114.03 25.119 113.554 24.949C113.078 24.779 112.67 24.541 112.33 24.235C111.99 23.9177 111.73 23.5493 111.548 23.13L113.197 22.399C113.367 22.7163 113.617 22.9827 113.945 23.198C114.285 23.4133 114.659 23.521 115.067 23.521C115.509 23.521 115.861 23.4473 116.121 23.3C116.393 23.1413 116.529 22.926 116.529 22.654C116.529 22.3933 116.427 22.195 116.223 22.059C116.019 21.9117 115.73 21.7927 115.356 21.702L114.557 21.481C113.753 21.277 113.124 20.954 112.67 20.512C112.217 20.0587 111.99 19.543 111.99 18.965C111.99 18.115 112.262 17.4577 112.806 16.993C113.362 16.5283 114.155 16.296 115.186 16.296C115.708 16.296 116.184 16.3753 116.614 16.534C117.056 16.6813 117.436 16.8967 117.753 17.18C118.071 17.452 118.292 17.775 118.416 18.149L116.835 18.863C116.722 18.5797 116.507 18.3643 116.189 18.217C115.872 18.0583 115.521 17.979 115.135 17.979C114.75 17.979 114.45 18.064 114.234 18.234C114.019 18.3927 113.911 18.6193 113.911 18.914C113.911 19.084 114.008 19.2427 114.2 19.39C114.393 19.526 114.671 19.6393 115.033 19.73L116.036 19.968C116.592 20.104 117.045 20.3193 117.396 20.614C117.748 20.8973 118.008 21.2203 118.178 21.583C118.348 21.9343 118.433 22.2913 118.433 22.654C118.433 23.164 118.286 23.6117 117.991 23.997C117.708 24.3823 117.317 24.6827 116.818 24.898C116.32 25.102 115.753 25.204 115.118 25.204ZM123.734 25.204C122.907 25.204 122.17 25.017 121.524 24.643C120.89 24.2577 120.385 23.7307 120.011 23.062C119.649 22.3933 119.467 21.6227 119.467 20.75C119.467 19.8773 119.654 19.1067 120.028 18.438C120.402 17.7693 120.912 17.248 121.558 16.874C122.216 16.4887 122.964 16.296 123.802 16.296C124.562 16.296 125.247 16.4943 125.859 16.891C126.471 17.2763 126.953 17.8373 127.304 18.574C127.667 19.3107 127.848 20.189 127.848 21.209H121.167L121.422 20.971C121.422 21.4923 121.536 21.9457 121.762 22.331C121.989 22.705 122.289 22.994 122.663 23.198C123.037 23.402 123.451 23.504 123.904 23.504C124.426 23.504 124.856 23.3907 125.196 23.164C125.536 22.926 125.803 22.62 125.995 22.246L127.678 22.96C127.44 23.4133 127.134 23.81 126.76 24.15C126.398 24.49 125.961 24.7507 125.451 24.932C124.953 25.1133 124.38 25.204 123.734 25.204ZM121.541 19.985L121.269 19.747H126.063L125.808 19.985C125.808 19.5203 125.706 19.1407 125.502 18.846C125.298 18.54 125.038 18.3133 124.72 18.166C124.414 18.0073 124.091 17.928 123.751 17.928C123.411 17.928 123.071 18.0073 122.731 18.166C122.391 18.3133 122.108 18.54 121.881 18.846C121.655 19.1407 121.541 19.5203 121.541 19.985ZM130.225 25.238C129.896 25.238 129.613 25.1247 129.375 24.898C129.148 24.66 129.035 24.3767 129.035 24.048C129.035 23.7193 129.148 23.436 129.375 23.198C129.613 22.96 129.896 22.841 130.225 22.841C130.553 22.841 130.837 22.96 131.075 23.198C131.313 23.436 131.432 23.7193 131.432 24.048C131.432 24.3767 131.313 24.66 131.075 24.898C130.837 25.1247 130.553 25.238 130.225 25.238ZM138.443 25L138.358 23.402V20.631C138.358 20.053 138.296 19.5713 138.171 19.186C138.058 18.7893 137.865 18.489 137.593 18.285C137.332 18.0697 136.981 17.962 136.539 17.962C136.131 17.962 135.774 18.047 135.468 18.217C135.162 18.387 134.901 18.6533 134.686 19.016L133.02 18.404C133.201 18.03 133.439 17.6843 133.734 17.367C134.04 17.0383 134.42 16.7777 134.873 16.585C135.338 16.3923 135.893 16.296 136.539 16.296C137.366 16.296 138.058 16.4603 138.613 16.789C139.168 17.1063 139.576 17.5653 139.837 18.166C140.109 18.7667 140.245 19.492 140.245 20.342L140.194 25H138.443ZM135.995 25.204C134.975 25.204 134.182 24.9773 133.615 24.524C133.06 24.0707 132.782 23.4303 132.782 22.603C132.782 21.719 133.077 21.0447 133.666 20.58C134.267 20.1153 135.1 19.883 136.165 19.883H138.443V21.345H136.777C136.018 21.345 135.485 21.4527 135.179 21.668C134.873 21.872 134.72 22.1667 134.72 22.552C134.72 22.8807 134.85 23.1413 135.111 23.334C135.383 23.5153 135.757 23.606 136.233 23.606C136.664 23.606 137.038 23.5097 137.355 23.317C137.672 23.1243 137.916 22.8693 138.086 22.552C138.267 22.2347 138.358 21.8777 138.358 21.481H138.919C138.919 22.637 138.687 23.5493 138.222 24.218C137.757 24.8753 137.015 25.204 135.995 25.204ZM142.292 25V16.5H144.179V25H142.292ZM143.244 14.885C142.938 14.885 142.672 14.7773 142.445 14.562C142.23 14.3353 142.122 14.069 142.122 13.763C142.122 13.457 142.23 13.1963 142.445 12.981C142.672 12.7657 142.938 12.658 143.244 12.658C143.55 12.658 143.811 12.7657 144.026 12.981C144.253 13.1963 144.366 13.457 144.366 13.763C144.366 14.069 144.253 14.3353 144.026 14.562C143.811 14.7773 143.55 14.885 143.244 14.885Z" fill="black"/>
<defs>
<filter id="filter0_i_15_121" x="0.412109" y="0.0372289" width="37.1011" height="37.5133" filterUnits="userSpaceOnUse" color-interpolation-filters="sRGB">
<feFlood flood-opacity="0" result="BackgroundImageFix"/>
<feBlend mode="normal" in="SourceGraphic" in2="BackgroundImageFix" result="shape"/>
<feColorMatrix in="SourceAlpha" type="matrix" values="0 0 0 0 0 0 0 0 0 0 0 0 0 0 0 0 0 0 127 0" result="hardAlpha"/>
<feOffset dy="-0.824468"/>
<feGaussianBlur stdDeviation="0.206117"/>
<feComposite in2="hardAlpha" operator="arithmetic" k2="-1" k3="1"/>
<feColorMatrix type="matrix" values="0 0 0 0 1 0 0 0 0 1 0 0 0 0 1 0 0 0 0.28 0"/>
<feBlend mode="normal" in2="shape" result="effect1_innerShadow_15_121"/>
</filter>
<filter id="filter1_f_15_121" x="22.2607" y="27.2447" width="18.9627" height="13.1915" filterUnits="userSpaceOnUse" color-interpolation-filters="sRGB">
<feFlood flood-opacity="0" result="BackgroundImageFix"/>
<feBlend mode="normal" in="SourceGraphic" in2="BackgroundImageFix" result="shape"/>
<feGaussianBlur stdDeviation="0.824468" result="effect1_foregroundBlur_15_121"/>
</filter>
<filter id="filter2_f_15_121" x="19.7873" y="-1.6117" width="22.2605" height="14.8404" filterUnits="userSpaceOnUse" color-interpolation-filters="sRGB">
<feFlood flood-opacity="0" result="BackgroundImageFix"/>
<feBlend mode="normal" in="SourceGraphic" in2="BackgroundImageFix" result="shape"/>
<feGaussianBlur stdDeviation="0.824468" result="effect1_foregroundBlur_15_121"/>
</filter>
<linearGradient id="paint0_linear_15_121" x1="18.9628" y1="0.0372314" x2="18.9628" y2="37.9628" gradientUnits="userSpaceOnUse">
<stop stop-color="#0EBB5B"/>
<stop offset="1" stop-color="#0A9925"/>
</linearGradient>
<linearGradient id="paint1_linear_15_121" x1="18.9628" y1="0.861694" x2="18.9628" y2="37.1383" gradientUnits="userSpaceOnUse">
<stop stop-color="#0EBE5F"/>
<stop offset="1" stop-color="#099620"/>
</linearGradient>
<linearGradient id="paint2_linear_15_121" x1="18.9628" y1="0.861694" x2="18.9628" y2="37.1383" gradientUnits="userSpaceOnUse">
<stop stop-color="white"/>
<stop offset="1" stop-color="white" stop-opacity="0.18"/>
</linearGradient>
<clipPath id="clip0_15_121">
<rect y="0.0372314" width="37.9255" height="37.9255" rx="6.59574" fill="white"/>
</clipPath>
<clipPath id="clip1_15_121">
<rect x="0.824463" y="0.861694" width="36.2766" height="36.2766" rx="5.77128" fill="white"/>
</clipPath>
</defs>
</svg>
